<?xml version="1.0" encoding="utf-8"?>
<!-- Generator: Adobe Illustrator 24.2.1, SVG Export Plug-In . SVG Version: 6.00 Build 0)  -->
<svg version="1.1" xmlns="http://www.w3.org/2000/svg" xmlns:xlink="http://www.w3.org/1999/xlink" x="0px" y="0px"
	 viewBox="0 0 500 500" style="enable-background:new 0 0 500 500;" xml:space="preserve">
<g id="BACKGROUND" style="display:none;">
	<rect style="display:inline;fill:#FFFFFF;" width="500" height="500"/>
	<path style="display:inline;fill:#DDECFF;" d="M107.46,384.26c0,0-54.62-38.9-70.34-105.1c-15.72-66.21,8.28-146.48,53.79-187.03
		c45.52-40.55,127.45-13.24,163.86,20.69s36.41,33.93,36.41,33.93s34.76,19.03,80.28,17.38c45.52-1.66,86.07,60.41,96.83,109.24
		s-14.9,113.38-14.9,113.38L107.46,384.26z"/>
	<path style="display:inline;fill:#DDECFF;" d="M82.64,394.19c0,0-38.07-20.69-48-68.69s33.1-91.86,37.24-115.86
		c4.14-24-4.97-53.79,33.1-76.97c38.07-23.17,105.93-14.9,131.59-20.69c25.66-5.79,55.45-45.52,106.76-36.41
		c51.31,9.1,100.97,36.41,103.45,96c2.48,59.59-16.55,61.24,2.48,93.52c19.03,32.28,26.48,54.62,17.38,87.72
		c-9.1,33.1-28.14,42.21-28.14,42.21L82.64,394.19z"/>
	<path style="display:inline;fill:#DDECFF;" d="M162.12,383.43c-2.37-2.48-37.1-72,1.58-135.72
		c38.68-63.72,135.77-56.28,174.45-31.45s57.62,57.1,61.57,91.03c3.95,33.93-22.1,86.9-22.1,86.9L162.12,383.43z"/>
</g>
<g id="OBJECTS">
	<g>
		<path style="fill:#1C83FF;" d="M149.22,372.26v-74.48c0,0-0.83-20.07,9.72-25.86s55.03-2.69,55.03-2.69v103.03H149.22z"/>
	</g>
	<g>
		<g>
			<path style="fill:#FF9D8C;" d="M227.88,199.5c0,0-2.69,22.55-3.72,24.41c-1.03,1.86-1.03,1.86-1.03,1.86l-5.17,3.52
				c0,0,9.93,14.07,22.14,16.34c12.21,2.28,11.17-4.97,11.17-4.97l-1.86-3.93l2.48-21.52C251.88,215.23,229.74,205.09,227.88,199.5z
				"/>
		</g>
		<path style="fill:#FFFFFF;" d="M211.53,231.16l8.07-3.52c0,0,5.17,8.48,17.17,13.45s12.21,2.07,12.83,0
			c0.62-2.07-0.21-4.34-0.21-4.34l0.89-7.24l4.8,1.6l16.66,134.75l-42.83,2.07L211.53,231.16z"/>
		<g>
			<path style="fill:#223A7A;" d="M251.05,229.64c0,0,2.9,6.69,5.59,22.41c2.69,15.72,5.17,42.21,5.79,60.41s1.03,59.79,1.03,59.79
				s53.38,0,54,0s4.34-20.48,4.34-20.48s-23.59-20.21-24.83-23.52c-0.83-2.21-0.41-43.1-3.93-61.93
				c-3.52-18.83-8.07-22.62-17.59-27.31C265.63,234.17,251.05,229.64,251.05,229.64z"/>
		</g>
		<g>
			<path style="fill:#8593B6;" d="M279.19,348.56c-0.28,0-0.5-0.22-0.5-0.5c0-1.48-0.26-22.5-0.52-42.82
				c-0.25-20.33-0.52-41.35-0.52-42.83c0-0.28,0.22-0.5,0.5-0.5s0.5,0.22,0.5,0.5c0,1.48,0.26,22.5,0.52,42.82
				c0.25,20.33,0.52,41.35,0.52,42.83C279.69,348.33,279.46,348.56,279.19,348.56z"/>
		</g>
		<g>
			<path style="fill:#223A7A;" d="M171.6,343.5l-0.41,28.76h62.9c0,0,2.69-24.41,1.66-26.69C234.7,343.3,171.6,343.5,171.6,343.5z"
				/>
		</g>
		<g>
			<path style="fill:#8E9BBB;" d="M241.6,223.3c2.56,2.07,6.07,3.72,8.8,4.73l1.48-12.8c0,0-16.63-7.62-22.27-13.28
				C230.79,208.38,233.69,216.91,241.6,223.3z"/>
		</g>
		<g>
			<path style="fill:#FF9D8C;" d="M271.33,157.5c0,0,4.34,7.45,5.17,16.55c0.83,9.1,0,32.48-7.45,42.41
				c-7.45,9.93-22.97,7.03-30,1.03c-6.46-5.51-12.83-11.59-14.48-23.59c-1.66-12,3.52-34.76,18.21-39.52
				C257.46,149.64,271.33,157.5,271.33,157.5z"/>
		</g>
		<g>
			<g>
				<path style="fill:#FF9D8C;" d="M289.99,359.26c0,0-0.73,0-1.84-0.03c-0.26-0.01-0.55,0-0.85-0.01c-1.07-0.03-2.37-0.06-3.68-0.1
					c-0.29-0.01-0.59-0.02-0.88-0.03c-1.3-0.03-2.41,0.13-3.45,0.07h-0.03c-0.22-0.01-0.54,0.02-0.8,0.03
					c-0.13,0.01-0.25,0.02-0.33,0.01c-0.6-0.11-0.72-0.25-1.37-0.54c-0.84-0.38-12.21-2.92-21.46-2.86
					c-9.24,0.04-17.53,0.67-18.88-0.46c-1.36-1.15-2.18-12.76,5.71-13.52l9.7,3.68c0,0,22.15-2.63,30.27,3.36
					C290.24,354.85,289.99,359.26,289.99,359.26z"/>
			</g>
			<g>
				<g>
					<path style="fill:#223A7A;" d="M279.26,359.16c-0.22-0.01-0.54,0.02-0.8,0.03c-0.2-0.32-0.62-0.9-0.85-1.14
						c-2.5-2.55-8.54-4.2-10.73-4.73c-0.2-0.05-0.33-0.25-0.28-0.45c0.04-0.2,0.25-0.32,0.46-0.28c3.19,0.77,9.96,2.74,11.88,5.97
						C279,358.65,279.16,358.96,279.26,359.16z"/>
				</g>
			</g>
			<g>
				<g>
					<path style="fill:#223A7A;" d="M283.62,359.11c-0.29-0.01-0.59-0.01-0.88-0.03c-2.73-4.98-7.2-6.41-12.71-8.18l-0.33-0.11
						c-0.19-0.06-0.3-0.28-0.24-0.48c0.06-0.19,0.27-0.3,0.48-0.24l0.32,0.11C276.09,352.06,280.79,353.56,283.62,359.11z"/>
				</g>
			</g>
			<g>
				<g>
					<path style="fill:#223A7A;" d="M288.15,359.22c-0.26-0.01-0.55,0-0.85-0.01c-1.66-3.48-7.14-9.31-14.38-10.66
						c-0.21-0.04-0.34-0.23-0.31-0.44c0.04-0.2,0.24-0.33,0.44-0.3C280.51,349.22,286.54,355.31,288.15,359.22z"/>
				</g>
			</g>
		</g>
		<g>
			<path style="fill:#223A7A;" d="M229.53,183.68c0,0,4.55-2.17,7.76-8.28c3.21-6.1,2.79-11.59,2.79-11.59s5.79-0.93,14.48,1.66
				c8.69,2.59,19.03,6.1,27.72,1.14c8.69-4.97,8.69-12.93,4.45-16.24c-4.75-3.71-14.17-1.45-14.17-1.45s3.62-3.52,1.66-5.59
				c-1.97-2.07-9.1,0.62-9.1,0.62s-8.69-6.93-25.14-6.1c-16.45,0.83-24.31,12.31-25.24,25.14c-0.93,12.83,3.72,25.66,3.72,25.66
				L229.53,183.68z"/>
		</g>
		<g>
			<g>
				<path style="fill:#8E9BBB;" d="M262.9,186.79c-0.93,2.3-0.91,4.97-1.14,7.4c-0.18,1.9-0.53,4.11,1.21,5.39
					c0.83,0.61,4.76,2.26,2.74,3.6c-0.77,0.51-2.06,0.37-2.94,0.33c-0.6-0.03-1.21-0.05-1.82-0.1c-0.65-0.05-1.28-0.24-1.93-0.25
					c-0.38,0-0.5,0.5-0.19,0.7c1.04,0.65,2.58,0.86,3.79,0.9c1.22,0.05,2.04-0.01,3.14-0.55c0.67-0.33,1.33-0.81,1.43-1.61
					c0.12-0.9-0.56-1.71-1.24-2.22c-0.78-0.58-1.74-0.85-2.53-1.42c-1.1-0.78-1.01-2.11-0.93-3.33c0.19-2.94,0.86-5.83,1.12-8.76
					C263.66,186.44,263.04,186.44,262.9,186.79L262.9,186.79z"/>
			</g>
		</g>
		<g>
			<path style="fill:#223A7A;" d="M271.36,193.66c-0.31,1.74-1.58,2.98-2.83,2.76c-1.26-0.22-2.02-1.82-1.72-3.56
				c0.31-1.74,1.58-2.98,2.83-2.76C270.9,190.33,271.67,191.92,271.36,193.66z"/>
		</g>
		<g>
			<path style="fill:#223A7A;" d="M255.53,192.28c-0.28,1.88-1.61,3.24-2.96,3.04c-1.36-0.2-2.23-1.89-1.95-3.77
				c0.28-1.88,1.61-3.24,2.96-3.04S255.81,190.4,255.53,192.28z"/>
		</g>
		<g>
			<g>
				<path style="fill:#223A7A;" d="M267.67,186.48c0.97,0.16,1.94,0,2.92,0.07c0.23,0.02,0.47,0.05,0.7,0.07
					c0.17,0.02-0.31-0.05-0.08-0.01c0.05,0.01,0.1,0.02,0.15,0.02c0.12,0.02,0.24,0.05,0.36,0.08c0.21,0.05,0.41,0.13,0.62,0.17
					c0.19,0.04,0.4,0.09,0.59,0.08c0.11-0.01,0.21-0.03,0.32-0.04c-0.07,0.01-0.13,0.02-0.2,0.04c0,0.02,0.36-0.03,0.4-0.04
					c0.55-0.13,0.9-0.77,0.74-1.31c-0.04-0.16-0.11-0.29-0.21-0.42c-0.04-0.05-0.08-0.11-0.13-0.16c0.04,0.04,0.08,0.09,0.12,0.13
					c-0.04-0.06-0.08-0.11-0.13-0.17c-0.05-0.09-0.13-0.17-0.22-0.22c-0.08-0.06-0.15-0.12-0.23-0.18c-0.26-0.18-0.59-0.28-0.9-0.36
					c-0.58-0.15-1.18-0.22-1.78-0.23c-0.59,0-1.18,0.06-1.76,0.14c-0.52,0.07-1.09,0.25-1.51,0.56c-0.32,0.24-0.52,0.55-0.47,0.97
					C267.02,186.01,267.3,186.41,267.67,186.48L267.67,186.48z"/>
			</g>
		</g>
		<g>
			<g>
				<path style="fill:#223A7A;" d="M256.64,183.71c-0.13-0.08-0.27-0.15-0.4-0.21c-0.12-0.05-0.44-0.22-0.2-0.09
					c-0.09-0.05-0.18-0.1-0.27-0.14c-0.4-0.2-0.82-0.34-1.25-0.45c-0.94-0.24-1.94-0.3-2.91-0.2c-1.03,0.11-1.98,0.36-2.87,0.9
					c-0.13,0.08-0.26,0.15-0.36,0.26c-0.07,0.09-0.14,0.18-0.21,0.27c0.02-0.03,0.04-0.06,0.06-0.09c-0.28,0.19-0.44,0.51-0.43,0.84
					c0,0.32,0.17,0.59,0.45,0.74c0.34,0.19,0.66,0.1,1.01,0.01c-0.17,0-0.35,0-0.52,0c0.29,0.04,0.49,0.06,0.78-0.01
					c0.01,0,0.28-0.07,0.1-0.03c-0.17,0.04,0.28-0.03,0.33-0.04c0.06-0.01,0.37-0.04,0.04-0.01c0.06-0.01,0.12-0.01,0.18-0.02
					c0.16-0.02,0.31-0.04,0.47-0.05c0.68-0.05,1.36-0.08,2.05-0.11c0.63-0.02,1.28-0.03,1.92,0c0.27,0.01,0.54,0.02,0.81,0.03
					c0.15,0,0.09,0.03-0.02,0c0.06,0.02,0.11,0.03,0.17,0.04c0.11,0.03,0.22,0.07,0.33,0.11c0.44,0.17,0.97-0.15,1.13-0.56
					C257.21,184.47,257.06,183.96,256.64,183.71L256.64,183.71z"/>
			</g>
		</g>
		<g>
			<path style="fill:#223A7A;" d="M261.55,212.47c0.95-1.91,2.68-3.31,4.67-4.21c-1.73-0.18-9.92-0.93-11.98,0.24
				c-2.31,1.31,0.43,6.59,5.21,6.85c0.5,0.03,0.96-0.01,1.4-0.08C260.89,214.31,261.11,213.36,261.55,212.47z"/>
		</g>
		<g>
			<path style="fill:#DEE1EB;" d="M223.74,201.37c0,0,0.83,3.21,5.59,6.93c4.76,3.72,11.66,6.45,11.66,6.45l0.55-2.41
				c0,0-7.14-3.1-10.45-6.52c-3.31-3.41-3.72-5.28-3.72-5.28L223.74,201.37z"/>
		</g>
		<g>
			<path style="fill:#223A7A;" d="M242.36,210.55c3.83-0.18,5.97,2.85,6.23,4.81c0.27,1.96-1.57,4.16-5.88,2.23
				C237.37,215.18,238.53,210.72,242.36,210.55z"/>
		</g>
		<g>
			<path style="fill:#DEE1EB;" d="M226.74,177.68c0,0,1.65-11.89,9.62-19.97c15.21-15.41,28.14-14.48,28.14-14.48
				s-0.1-2.17-4.97-3.83c-4.57-1.55-6.62-0.72-6.62-0.72s-12.52,1.03-23.07,12.72c-10.55,11.69-11.69,26.59-11.69,26.59
				L226.74,177.68z"/>
		</g>
		<g>
			<g>
				<path style="fill:#FFFFFF;" d="M225.6,176.23c-9.96-1.69-15.52,6.1-15.93,13.97c-0.41,7.86,5.3,13.84,12.93,13.24
					C239.77,202.09,237.81,178.3,225.6,176.23z"/>
			</g>
			<g>
				<path style="fill:#818FB3;" d="M220.64,195.79c-2.63,0-4.85-1.32-6.12-3.65c-1.36-2.49-1.25-5.56,0.29-7.82
					c0.12-0.17,0.35-0.21,0.52-0.1c0.17,0.12,0.22,0.35,0.1,0.52c-1.38,2.03-1.48,4.79-0.25,7.04c1.16,2.13,3.22,3.34,5.66,3.26
					c2.28-0.06,4.21-1.1,5.43-2.93c1.4-2.09,1.72-4.97,0.82-7.35c-0.9-2.36-3.35-3.96-5.58-3.67c-0.2,0.03-0.39-0.12-0.42-0.32
					c-0.03-0.21,0.12-0.39,0.32-0.42c2.61-0.35,5.35,1.44,6.38,4.15c0.99,2.6,0.63,5.75-0.9,8.03c-1.37,2.04-3.51,3.2-6.03,3.26
					C220.78,195.79,220.71,195.79,220.64,195.79z"/>
			</g>
		</g>
		<g>
			<path style="fill:#223A7A;" d="M213.39,228.26c0,0-30.21,7.45-40.76,19.45c-10.55,12-15.52,71.17-15.72,82.14
				c-0.21,10.97,7.45,15.52,12,18.62c4.55,3.1,24.62,8.69,40.76,9.52s31.45,0,31.45,0s-0.05-3.52,2.43-8.69
				c2.3-4.8,5.22-5.79,5.22-5.79l-13.86-4.97c0,0-2.43-43.49-6.21-64.55C224.36,249.78,213.39,228.26,213.39,228.26z"/>
		</g>
		<g>
			<path style="fill:#8593B6;" d="M263.46,331.59c-0.07,0-0.14-0.01-0.2-0.04c-0.25-0.11-0.37-0.41-0.25-0.66
				c2.83-6.39,5.76-18.92,7.41-27.72l0.14-0.71c0.5-2.59,1.12-5.8-0.12-8.03c-0.63-1.13-2.06-3.59-3.44-5.95
				c-1.43-2.45-2.77-4.77-3.15-5.46c-0.73-1.35,1.57-4.96,4.89-9.91c0.9-1.34,1.67-2.49,2.12-3.27c1.18-2.05,0.4-3.92-0.52-6.1
				l-0.31-0.75c-0.83-2.03-1.77-4.06-2.68-6.03c-0.37-0.8-0.74-1.61-1.11-2.42c-0.49-1.07-0.97-2.16-1.47-3.26
				c-2.92-6.52-5.95-13.26-9.82-19.77c-0.14-0.24-0.06-0.54,0.17-0.69c0.24-0.14,0.54-0.06,0.69,0.17
				c3.9,6.56,6.94,13.33,9.87,19.87c0.49,1.1,0.98,2.19,1.46,3.25c0.37,0.81,0.74,1.61,1.11,2.41c0.91,1.98,1.86,4.02,2.69,6.07
				l0.31,0.74c0.93,2.21,1.89,4.51,0.46,6.98c-0.47,0.81-1.25,1.98-2.16,3.33c-1.73,2.58-5.33,7.95-4.84,8.88
				c0.37,0.68,1.71,2.99,3.13,5.43c1.38,2.37,2.81,4.83,3.45,5.97c1.42,2.54,0.76,5.96,0.23,8.7l-0.14,0.71
				c-0.6,3.2-3.79,19.6-7.48,27.94C263.84,331.48,263.65,331.59,263.46,331.59z"/>
		</g>
		<g>
			<path style="fill:#8593B6;" d="M233.98,333.35c-0.13,0-0.26-0.05-0.35-0.15c-2.35-2.37-13.69-22-14.53-25.69
				c-0.46-2.02,0.7-7.15,1.82-12.11c0.87-3.84,1.77-7.81,1.51-8.89c-0.38-1.61-3.28-3.98-6.09-6.27c-3.39-2.77-6.89-5.63-7.57-8.21
				c-0.77-2.93-0.11-21.27,0.32-33.4c0.16-4.36,0.28-7.81,0.28-9.04c0-0.28,0.22-0.5,0.5-0.5c0,0,0,0,0,0c0.28,0,0.5,0.22,0.5,0.5
				c0,1.25-0.12,4.7-0.28,9.07c-0.41,11.34-1.09,30.32-0.36,33.11c0.6,2.26,4.12,5.14,7.23,7.68c3.07,2.51,5.96,4.87,6.42,6.81
				c0.31,1.3-0.53,5.03-1.51,9.34c-1.05,4.62-2.23,9.86-1.82,11.66c0.83,3.62,11.96,22.88,14.27,25.21c0.19,0.2,0.19,0.51,0,0.71
				C234.24,333.3,234.11,333.35,233.98,333.35z"/>
		</g>
		<g>
			<path style="fill:#8593B6;" d="M193.33,324.76c-0.02,0-0.05,0-0.07,0c-0.27-0.04-0.46-0.29-0.43-0.57
				c0.37-2.6,6.11-54.4,6.37-58.37c0.02-0.28,0.26-0.49,0.53-0.47c0.28,0.02,0.48,0.26,0.47,0.53c-0.26,3.97-6.01,55.84-6.38,58.44
				C193.79,324.58,193.57,324.76,193.33,324.76z"/>
		</g>
		<g>
			<path style="fill:#8593B6;" d="M234.5,338.83c-0.06,0-0.13-0.01-0.19-0.04c-1.27-0.52-6.89-2.41-14-4.81
				c-14.36-4.84-34.02-11.47-37.76-13.42c-0.25-0.13-0.34-0.43-0.21-0.67c0.13-0.25,0.43-0.34,0.67-0.21
				c3.67,1.91,24.1,8.8,37.62,13.36c7.13,2.41,12.76,4.3,14.06,4.83c0.26,0.1,0.38,0.4,0.28,0.65
				C234.88,338.71,234.69,338.83,234.5,338.83z"/>
		</g>
		<g>
			<path style="fill:#8593B6;" d="M227.59,359.46c-12.64,0-37.13-2.28-55.74-8.86c-0.26-0.09-0.4-0.38-0.3-0.64
				c0.09-0.26,0.38-0.4,0.64-0.3c23.51,8.32,56.4,9.74,62.52,8.36c0.27-0.06,0.54,0.11,0.6,0.38c0.06,0.27-0.11,0.54-0.38,0.6
				C233.59,359.29,231.03,359.46,227.59,359.46z"/>
		</g>
	</g>
	<g>
		<g>
			<g>
				<polygon style="fill:#F6F7FA;" points="450.19,286.61 410.64,364.95 295.33,365.78 330.91,285.5 				"/>
			</g>
			<g>
				<path style="fill:#D9DEE8;" d="M218.8,365.29l0.02-6.27h74.65l34.34-75.31h119.38l3,2.9H333.57l-35.69,78.62
					C297.88,365.23,218.8,365.08,218.8,365.29z"/>
			</g>
			<g>
				<path style="fill:#D9DEE8;" d="M390.31,329.84c-1.3,3.91-8.37,6.93-15.79,6.74c-7.42-0.19-12.38-3.5-11.07-7.41
					s8.37-6.93,15.79-6.74C386.65,322.61,391.61,325.93,390.31,329.84z"/>
			</g>
		</g>
		<g>
			<path style="fill:#FFFFFF;" d="M297.88,365.73c-0.07,0-0.14-0.01-0.21-0.04c-0.25-0.11-0.36-0.41-0.25-0.66l35.82-78.91h116.94
				c0.28,0,0.5,0.22,0.5,0.5c0,0.28-0.22,0.5-0.5,0.5h-116.3l-35.56,78.33C298.25,365.62,298.07,365.73,297.88,365.73z"/>
		</g>
	</g>
	<g>
		<g>
			<rect x="76.43" y="371.23" style="fill:#596B9B;" width="137.17" height="30.41"/>
			<rect x="212.82" y="371.23" style="fill:#7A89AF;" width="246.8" height="30.41"/>
		</g>
		<polygon style="fill:#BDC4D7;" points="213.6,371.23 212.82,371.23 76.43,371.23 76.43,376.81 212.82,376.81 213.6,376.81 
			459.62,376.81 459.62,371.23 		"/>
		<rect x="69.81" y="365.23" style="fill:#6F7FA9;" width="149.79" height="7.45"/>
		<rect x="218.82" y="365.23" style="fill:#9CA6C3;" width="246.8" height="7.45"/>
	</g>
	<g>
		<path style="fill:#253D7C;" d="M425.5,96.26H313.7c-7.18,0-13,5.82-13,13v53.03c0,7.18,5.82,13,13,13h10.02
			c0.28,4.81-0.41,11.96-4.42,21.1c12.92-5.96,20.35-14.9,24.24-21.1h81.96c7.18,0,13-5.82,13-13v-53.03
			C438.5,102.08,432.68,96.26,425.5,96.26z"/>
		<path style="fill:#FFFFFF;" d="M377.81,121.54h-55.45c-1.52,0-2.76-1.24-2.76-2.76l0,0c0-1.52,1.24-2.76,2.76-2.76h55.45
			c1.52,0,2.76,1.24,2.76,2.76l0,0C380.57,120.3,379.33,121.54,377.81,121.54z"/>
		<path style="fill:#D2E6FF;" d="M417.57,137.61h-96.28c-0.93,0-1.69-0.76-1.69-1.69l0,0c0-0.93,0.76-1.69,1.69-1.69h96.28
			c0.93,0,1.69,0.76,1.69,1.69l0,0C419.26,136.85,418.5,137.61,417.57,137.61z"/>
		<path style="fill:#D2E6FF;" d="M417.57,146.99h-96.28c-0.93,0-1.69-0.76-1.69-1.69l0,0c0-0.93,0.76-1.69,1.69-1.69h96.28
			c0.93,0,1.69,0.76,1.69,1.69l0,0C419.26,146.23,418.5,146.99,417.57,146.99z"/>
		<path style="fill:#D2E6FF;" d="M396.57,156.99h-75.27c-0.93,0-1.69-0.76-1.69-1.69l0,0c0-0.93,0.76-1.69,1.69-1.69h75.27
			c0.93,0,1.69,0.76,1.69,1.69l0,0C398.26,156.23,397.5,156.99,396.57,156.99z"/>
		<path style="fill:#FFFFFF;" d="M416.81,121.54h-26.45c-1.52,0-2.76-1.24-2.76-2.76l0,0c0-1.52,1.24-2.76,2.76-2.76h26.45
			c1.52,0,2.76,1.24,2.76,2.76l0,0C419.57,120.3,418.33,121.54,416.81,121.54z"/>
	</g>
</g>
</svg>
